<svg xmlns="http://www.w3.org/2000/svg" width="25.654" height="20.99" viewBox="0 0 25.654 20.99">
  <g id="News_selected" transform="translate(22888.988 23022.85)">
    <path id="Path_75961" data-name="Path 75961" d="M1,5.332A2.332,2.332,0,0,1,3.332,3H24.321a2.332,2.332,0,0,1,2.332,2.332V21.657a2.332,2.332,0,0,1-2.332,2.332H3.332A2.332,2.332,0,0,1,1,21.657Zm3.5,2.12A.954.954,0,0,1,5.452,6.5H17.537a.954.954,0,0,1,.954.954V8.83a.954.954,0,0,1-.954.954H5.452A.954.954,0,0,1,4.5,8.83Zm.954,5.618a.954.954,0,0,0-.954.954V15.4a.954.954,0,0,0,.954.954h8.587a.954.954,0,0,0,.954-.954V14.025a.954.954,0,0,0-.954-.954Z" transform="translate(-22889.988 -23025.85)" fill="#8948a2" fill-rule="evenodd"/>
  </g>
</svg>
