<svg xmlns="http://www.w3.org/2000/svg" xmlns:xlink="http://www.w3.org/1999/xlink" width="30.514" height="23.742" viewBox="0 0 30.514 23.742">
  <defs>
    <clipPath id="clip-path">
      <circle id="Ellipse_5284" data-name="Ellipse 5284" cx="7.395" cy="7.395" r="7.395" fill="#fff" stroke="#868686" stroke-width="1"/>
    </clipPath>
    <clipPath id="clip-path-2">
      <rect width="12.548" height="15.572" fill="none"/>
    </clipPath>
  </defs>
  <g id="Progress_unselected" transform="translate(22620.414 23089.414)">
    <g id="Group_67290" data-name="Group 67290" transform="translate(-22619 -23088)">
      <g id="Group_67139" data-name="Group 67139" transform="translate(10.458 0) rotate(45)">
        <g id="Mask_Group_8866" data-name="Mask Group 8866" transform="translate(0 0)" clip-path="url(#clip-path)">
          <g id="Repeat_Grid_97" data-name="Repeat Grid 97" transform="translate(2.067 -0.809)" clip-path="url(#clip-path-2)">
            <g transform="translate(-20856 -10275.5)">
              <line id="Line_2724" data-name="Line 2724" y2="36" transform="translate(20856.5 10275.5)" fill="none" stroke="#868686" stroke-width="1"/>
            </g>
            <g transform="translate(-20853 -10275.5)">
              <line id="Line_2724-2" data-name="Line 2724" y2="36" transform="translate(20856.5 10275.5)" fill="none" stroke="#868686" stroke-width="1"/>
            </g>
            <g transform="translate(-20850 -10275.5)">
              <line id="Line_2724-3" data-name="Line 2724" y2="36" transform="translate(20856.5 10275.5)" fill="none" stroke="#868686" stroke-width="1"/>
            </g>
            <g transform="translate(-20847 -10275.5)">
              <line id="Line_2724-4" data-name="Line 2724" y2="36" transform="translate(20856.5 10275.5)" fill="none" stroke="#868686" stroke-width="1"/>
            </g>
            <g transform="translate(-20844 -10275.5)">
              <line id="Line_2724-5" data-name="Line 2724" y2="36" transform="translate(20856.5 10275.5)" fill="none" stroke="#868686" stroke-width="1"/>
            </g>
          </g>
        </g>
        <circle id="Ellipse_5285" data-name="Ellipse 5285" cx="7.395" cy="7.395" r="7.395" transform="translate(0)" fill="none" stroke="#868686" stroke-width="2"/>
      </g>
      <path id="Union_5" data-name="Union 5" d="M7.023,17.737a7.395,7.395,0,0,1,0-14.77A10.78,10.78,0,0,1,14.488,0,10.506,10.506,0,0,1,25.142,10.353,10.506,10.506,0,0,1,14.488,20.7,10.779,10.779,0,0,1,7.023,17.737Z" transform="translate(2.959)" fill="none" stroke="#868686" stroke-width="2"/>
    </g>
  </g>
</svg>
