<svg xmlns="http://www.w3.org/2000/svg" width="26.424" height="23.02" viewBox="0 0 26.424 23.02">
  <g id="Insights_selected" transform="translate(22466.426 23023)">
    <g id="Group_67222" data-name="Group 67222" transform="translate(-22464.078 -23022)">
      <path id="Path_75962" data-name="Path 75962" d="M1,5.055A2.055,2.055,0,0,1,3.055,3h18.5a2.055,2.055,0,0,1,2.055,2.055v16.91a2.055,2.055,0,0,1-2.055,2.055H3.055A2.055,2.055,0,0,1,1,21.965Z" transform="translate(-0.534 -3)" fill="#8948a2" stroke="#8948a2" stroke-width="2" fill-rule="evenodd"/>
      <g id="Group_67220" data-name="Group 67220" transform="translate(0 4.727)">
        <path id="Path_75924" data-name="Path 75924" d="M23.537,1005.617a1.313,1.313,0,0,0,1.328,1.2h1.761l-4.325,3.812-3.326-2.655a1.222,1.222,0,0,0-1.656-.013L11.431,1013a1.262,1.262,0,1,0,1.63,1.906l5.087-4.364,3.4,2.721a1.308,1.308,0,0,0,1.63-.04l5.468-4.824v2.2a1.262,1.262,0,1,0,2.524,0v-5.048a1.312,1.312,0,0,0-1.262-1.262H24.865a1.342,1.342,0,0,0-1.328,1.328Z" transform="translate(-10.899 -1004.289)" fill="#fff"/>
      </g>
    </g>
    <path id="Path_75986" data-name="Path 75986" d="M19.688,1.125l-8,6.855" transform="translate(-22477.301 -23013.1)" fill="none" stroke="#fff" stroke-width="2.5"/>
  </g>
</svg>
