<svg xmlns="http://www.w3.org/2000/svg" width="25.66" height="21.359" viewBox="0 0 25.66 21.359">
  <g id="News_unselected" transform="translate(22889 23088)">
    <path id="Path_75985" data-name="Path 75985" d="M1,5.151A2.151,2.151,0,0,1,3.151,3H22.51a2.151,2.151,0,0,1,2.151,2.151V20.208a2.151,2.151,0,0,1-2.151,2.151H3.151A2.151,2.151,0,0,1,1,20.208ZM4.226,7.106a.88.88,0,0,1,.88-.88H16.252a.88.88,0,0,1,.88.88V8.377a.88.88,0,0,1-.88.88H5.106a.88.88,0,0,1-.88-.88Zm.88,5.182a.88.88,0,0,0-.88.88v1.271a.88.88,0,0,0,.88.88h7.919a.88.88,0,0,0,.88-.88V13.168a.88.88,0,0,0-.88-.88Z" transform="translate(-22889 -23090)" fill="none" stroke="#868686" stroke-width="2" fill-rule="evenodd"/>
  </g>
</svg>
