<svg xmlns="http://www.w3.org/2000/svg" width="27.984" height="19.34" viewBox="0 0 27.984 19.34">
  <g id="Profile_unselected" transform="translate(22755 23087)">
    <g id="Group_67291" data-name="Group 67291" transform="translate(-22755 -23087)">
      <g id="Group_67142" data-name="Group 67142" transform="translate(3.718)">
        <g id="Group_67141" data-name="Group 67141" transform="translate(0 0)">
          <path id="Path_75925" data-name="Path 75925" d="M166.806,171.377a4.921,4.921,0,0,1-.045.643l.033-.238a4.748,4.748,0,0,1-.206.853c-.022.065-.047.129-.072.193q-.052.129.044-.1c-.016.038-.033.075-.05.112-.062.136-.133.268-.209.4s-.143.23-.222.341c-.134.189.14-.176,0,.005-.05.063-.1.125-.157.186a4.593,4.593,0,0,1-.621.579l.19-.148a4.709,4.709,0,0,1-1.019.594l.229-.1a4.682,4.682,0,0,1-1.165.315l.247-.032a4.755,4.755,0,0,1-1.245-.006l.238.033a4.749,4.749,0,0,1-.853-.206c-.065-.022-.129-.047-.193-.072q-.129-.052.1.044l-.112-.05c-.136-.062-.268-.133-.4-.209s-.23-.143-.34-.222c-.189-.134.176.14-.005,0-.063-.05-.125-.1-.186-.157a4.594,4.594,0,0,1-.579-.621l.148.19a4.71,4.71,0,0,1-.594-1.018l.1.229a4.685,4.685,0,0,1-.315-1.164l.032.246a4.756,4.756,0,0,1,.006-1.245l-.033.238a4.751,4.751,0,0,1,.206-.853c.022-.065.047-.129.072-.193q.052-.129-.044.1c.016-.038.033-.075.05-.112.062-.136.133-.268.209-.4s.143-.23.222-.34c.134-.189-.14.176,0-.005.05-.063.1-.125.157-.186a4.592,4.592,0,0,1,.621-.579l-.19.148a4.71,4.71,0,0,1,1.018-.594l-.229.1a4.683,4.683,0,0,1,1.164-.315l-.247.032a4.756,4.756,0,0,1,1.245.006l-.238-.033a4.752,4.752,0,0,1,.853.206c.065.022.129.047.193.072q.129.052-.1-.044l.112.05c.136.062.268.133.4.209s.23.143.34.222c.189.134-.176-.14.005,0,.063.05.125.1.186.157a4.592,4.592,0,0,1,.579.621l-.148-.19a4.711,4.711,0,0,1,.594,1.018l-.1-.229a4.684,4.684,0,0,1,.315,1.165l-.032-.246a4.936,4.936,0,0,1,.039.6.927.927,0,0,0,1.854.013,5.516,5.516,0,0,0-1.925-4.177,5.457,5.457,0,0,0-4.655-1.206,5.478,5.478,0,0,0-4.041,7.306,5.464,5.464,0,0,0,3.392,3.274,5.486,5.486,0,0,0,7.229-5.2.927.927,0,1,0-1.854-.013Z" transform="translate(-157.685 -165.902)" fill="#868686"/>
        </g>
      </g>
      <g id="Group_67144" data-name="Group 67144" transform="translate(0 9.21)">
        <g id="Group_67143" data-name="Group 67143" transform="translate(0)">
          <path id="Path_75926" data-name="Path 75926" d="M55.735,473.3a9.19,9.19,0,0,0-4.084-7.654,9.191,9.191,0,0,0-8.555-.888,9.2,9.2,0,0,0-5.556,6.555,9.5,9.5,0,0,0-.215,1.973.936.936,0,0,0,.92.934H54.8a.927.927,0,0,0,.013-1.854H38.258l.92.934a8.668,8.668,0,0,1,.08-1.155l-.033.238a8.442,8.442,0,0,1,.369-1.54c.04-.117.083-.232.128-.347l.031-.076c.062-.155-.094.221-.028.067.027-.063.055-.125.083-.187.113-.247.24-.487.376-.722s.27-.437.42-.645c.031-.044.063-.087.1-.13q.083-.111-.07.092l.075-.1c.083-.106.17-.209.259-.31a8.336,8.336,0,0,1,1.143-1.079l-.19.148a8.42,8.42,0,0,1,1.889-1.1l-.229.1a8.379,8.379,0,0,1,2.123-.57l-.247.032a8.518,8.518,0,0,1,2.226.011l-.238-.033a8.445,8.445,0,0,1,1.54.369c.117.04.232.083.347.128l.076.031c.155.062-.221-.094-.067-.028.063.027.125.055.187.083.247.113.487.24.722.376s.437.27.645.42l.13.1-.092-.07.1.075c.106.083.209.17.31.259a8.338,8.338,0,0,1,1.079,1.143l-.147-.19a8.422,8.422,0,0,1,1.1,1.889l-.1-.229a8.38,8.38,0,0,1,.57,2.123l-.032-.246a8.7,8.7,0,0,1,.069,1.071.927.927,0,1,0,1.854.013Z" transform="translate(-37.325 -464.085)" fill="#868686"/>
        </g>
      </g>
      <g id="Group_67146" data-name="Group 67146" transform="translate(17.027 2.502)">
        <g id="Group_67145" data-name="Group 67145">
          <path id="Path_75927" data-name="Path 75927" d="M589.529,248.766h9.1a.927.927,0,0,0,.013-1.854h-9.1a.927.927,0,1,0-.013,1.854Z" transform="translate(-588.608 -246.912)" fill="#868686"/>
        </g>
      </g>
      <g id="Group_67148" data-name="Group 67148" transform="translate(18.597 8.741)">
        <g id="Group_67147" data-name="Group 67147" transform="translate(0 0)">
          <path id="Path_75928" data-name="Path 75928" d="M640.341,450.74h7.533a.927.927,0,1,0,.013-1.854h-7.533a.927.927,0,0,0-.013,1.854Z" transform="translate(-639.42 -448.886)" fill="#868686"/>
        </g>
      </g>
      <g id="Group_67150" data-name="Group 67150" transform="translate(21.737 14.979)">
        <g id="Group_67149" data-name="Group 67149" transform="translate(0 0)">
          <path id="Path_75929" data-name="Path 75929" d="M741.963,652.714h4.394a.927.927,0,1,0,.013-1.854h-4.394a.927.927,0,0,0-.013,1.854Z" transform="translate(-741.042 -650.86)" fill="#868686"/>
        </g>
      </g>
    </g>
  </g>
</svg>
